<svg width="57" height="57" viewBox="0 0 57 57" fill="none" xmlns="http://www.w3.org/2000/svg">
<path d="M28.3351 48.9866L54.8892 8.31543H1.78125L28.3351 48.9866Z" fill="url(#paint0_linear_30_7206)"/>
<path d="M8.08984 36.6599C9.17203 35.5056 11.8559 32.865 13.9336 31.5375C16.0114 30.2101 18.5029 26.4152 19.4889 24.6837C22.495 20.2588 29.2285 11.0193 32.1144 9.46096C32.6338 9.05694 33.389 8.42688 33.7016 8.16237C34.7838 5.75748 38.4632 1.66922 44.5234 4.55508C45.0429 4.3819 46.3271 4.33862 46.9043 4.33862C46.4473 4.65127 45.4902 5.56509 45.317 6.71945C44.8553 9.89383 43.1046 11.7456 42.2869 12.2747C41.7098 15.9541 40.9161 19.2007 39.1846 20.355L40.7719 23.1686C43.1527 25.6938 48.0875 31.148 48.7798 32.7641C46.4714 32.0137 44.9804 31.2971 44.5234 31.0326L48.7798 36.8763C46.279 36.684 40.6564 35.0583 38.1746 30.0947C39.1558 32.7496 40.1225 36.0587 40.4833 37.3814C39.1365 36.2751 36.2411 33.067 35.4331 29.0846C35.664 32.9516 35.6254 35.698 35.5773 36.5878C34.9281 35.9865 33.4274 34.1204 32.6194 31.4654V35.9384C31.6503 34.5911 29.7008 31.3203 29.5247 28.8522C29.6872 31.6497 29.5882 32.9611 29.5171 33.269L25.8377 29.8061C24.8517 30.3351 22.2016 31.5375 19.4889 32.1147C17.6419 33.6731 15.4006 37.5738 14.5108 39.3293V37.0928L12.0579 39.5457L12.9236 36.9485L11.3364 38.3193C10.9756 38.5357 10.1388 38.9686 9.67706 38.9686C9.85018 38.5646 10.1821 38.1269 10.3264 37.9585L8.23413 38.7521C8.47461 38.0547 9.22975 36.5156 10.3264 35.9384C8.82573 36.5156 8.21011 36.6599 8.08984 36.6599Z" fill="white"/>
<defs>
<linearGradient id="paint0_linear_30_7206" x1="28.3351" y1="48.9866" x2="28.3351" y2="-5.24163" gradientUnits="userSpaceOnUse">
<stop stop-color="#01D6E6"/>
<stop offset="1" stop-color="#0182E7"/>
</linearGradient>
</defs>
</svg>
